# xmcd
# 
# Track frame offsets:
#     150
#     19007
#     45309
#     58951
#     74269
#     87617
#     101267
#     114922
#     142572
#     154185
#     168159
#     178533
#     203750
#     214446
#     228444
#     242161
#     255709
#     269310
#     287668
#     302008
# 
# Disc length: 4227
# 
# Revision: 2
# Processed by: cddbd v1.5.2PL0 Copyright (c) Steve Scherf et al.
# Submitted via: fre:ac v1.0.17
# 
DISCID=12108114
DTITLE=Various Artist - Got The Blues
DYEAR=2018
DGENRE=Blues
TTITLE0=Gary Moore - Still Got The Blues
TTITLE1=Steppenwolf - The Pusher
TTITLE2=John Lee Hooker - One Bourbon, One Scotch, One Beer
TTITLE3=Freddie King - Going Down
TTITLE4=Eddie Taylor - Ride 'Em On Down
TTITLE5=Koko Taylor - Wang Dang Doodle
TTITLE6=T - Bone Walker - Call It Stormy Monday (But Tuesday Is Just As Bad)
TTITLE7=Willie Dixon - Back Door Man
TTITLE8=Big Maybelle - So Good To My Baby
TTITLE9=Lowell Fulsom - Tramp
TTITLE10=Dale Hawkins - Suzie Q
TTITLE11=Terry Evans - Get Your Lies Straight
TTITLE12=Clarence "Frogman" Henry - Ain't Got No Homes
TTITLE13=John Fahey - Sligo River Blues
TTITLE14=Big Bill Broonzy - Get Back
TTITLE15=Skip James - Devil's Got My Woman
TTITLE16=Jimmy And Walter - Easy
TTITLE17=Pops Staples - I Shall Not Be Moved
TTITLE18=Champion Jack Dupree - Junker's Blues
TTITLE19=Ray Charles - Goodbye - We'll Be Together Again
EXTD=
EXTT0=
EXTT1=
EXTT2=
EXTT3=
EXTT4=
EXTT5=
EXTT6=
EXTT7=
EXTT8=
EXTT9=
EXTT10=
EXTT11=
EXTT12=
EXTT13=
EXTT14=
EXTT15=
EXTT16=
EXTT17=
EXTT18=
EXTT19=
PLAYORDER=
